<svg width="89" height="23" viewBox="0 0 89 23" fill="none" xmlns="http://www.w3.org/2000/svg">
<path d="M73.5457 22.3162C71.8996 22.3162 70.4827 21.9726 69.295 21.2852C68.1143 20.5908 67.2044 19.6099 66.5654 18.3427C65.9264 17.0683 65.6069 15.5612 65.6069 13.8215C65.6069 12.1247 65.9264 10.6355 66.5654 9.35395C67.2044 8.0724 68.1039 7.07366 69.2638 6.35771C70.4306 5.64176 71.7989 5.28378 73.3686 5.28378C74.4243 5.28378 75.4071 5.45919 76.317 5.81001C77.2338 6.15366 78.0326 6.67272 78.7132 7.3672C79.4008 8.06167 79.9356 8.93512 80.3176 9.98757C80.6997 11.0329 80.8907 12.2571 80.8907 13.6604V14.9169H67.3781V12.0817H76.7129C76.7129 11.423 76.574 10.8395 76.2962 10.3312C76.0183 9.8229 75.6329 9.42555 75.1397 9.13917C74.6535 8.84563 74.0875 8.69886 73.4415 8.69886C72.7678 8.69886 72.1705 8.85995 71.6496 9.18212C71.1356 9.49714 70.7328 9.92313 70.441 10.4601C70.1493 10.9899 70 11.5806 69.9931 12.2321V14.9276C69.9931 15.7438 70.1389 16.449 70.4306 17.0432C70.7293 17.6375 71.1495 18.0957 71.6913 18.4179C72.233 18.74 72.8755 18.9011 73.6186 18.9011C74.1118 18.9011 74.5632 18.8295 74.973 18.6864C75.3828 18.5432 75.7336 18.3284 76.0253 18.042C76.317 17.7556 76.5393 17.4048 76.6921 16.9896L80.7969 17.2688C80.5885 18.2854 80.1614 19.1732 79.5154 19.9321C78.8764 20.6838 78.0499 21.2709 77.0359 21.6933C76.0288 22.1086 74.8654 22.3162 73.5457 22.3162Z" fill="#1A1A2C"/>
<path d="M39.4934 21.994V5.49857H43.7233V8.4089H43.9108C44.2442 7.44237 44.7998 6.67988 45.5777 6.12144C46.3556 5.563 47.2863 5.28378 48.3698 5.28378C49.4672 5.28378 50.4014 5.56658 51.1724 6.13218C51.9433 6.69062 52.4573 7.44953 52.7143 8.4089H52.881C53.2074 7.46385 53.7978 6.70852 54.6521 6.14292C55.5134 5.57016 56.5309 5.28378 57.7047 5.28378C59.198 5.28378 60.41 5.77421 61.3407 6.75506C62.2784 7.72875 62.7472 9.11053 62.7472 10.9004V21.994H58.3194V11.8025C58.3194 10.8861 58.0832 10.1988 57.6109 9.74057C57.1386 9.28236 56.5483 9.05326 55.8398 9.05326C55.0341 9.05326 54.4055 9.31816 53.9541 9.84796C53.5026 10.3706 53.2769 11.0615 53.2769 11.9206V21.994H48.9741V11.7058C48.9741 10.8968 48.7484 10.2525 48.2969 9.77278C47.8524 9.2931 47.2655 9.05326 46.5362 9.05326C46.0431 9.05326 45.5986 9.18213 45.2027 9.43987C44.8137 9.69045 44.5046 10.0448 44.2754 10.5031C44.0462 10.9541 43.9316 11.4839 43.9316 12.0925V21.994H39.4934Z" fill="#1A1A2C"/>
<path d="M29.5047 22.3162C27.8655 22.3162 26.4556 21.9582 25.2748 21.2423C24.101 20.5192 23.1981 19.5169 22.5661 18.2353C21.941 16.9538 21.6284 15.4789 21.6284 13.8107C21.6284 12.1211 21.9444 10.6391 22.5765 9.36469C23.2155 8.08314 24.1219 7.08439 25.2957 6.36844C26.4695 5.64534 27.8655 5.28378 29.4839 5.28378C30.8799 5.28378 32.1023 5.5451 33.1511 6.06775C34.1999 6.59039 35.0299 7.32424 35.6411 8.26929C36.2523 9.21434 36.5892 10.3241 36.6517 11.5985H32.4635C32.3454 10.7751 32.0329 10.1129 31.5259 9.6117C31.0258 9.10337 30.3694 8.84921 29.5568 8.84921C28.8692 8.84921 28.2684 9.04251 27.7544 9.42913C27.2474 9.80858 26.8515 10.3634 26.5667 11.0937C26.2819 11.824 26.1396 12.7082 26.1396 13.7463C26.1396 14.7987 26.2785 15.6937 26.5563 16.4311C26.8411 17.1685 27.2404 17.7306 27.7544 18.1172C28.2684 18.5038 28.8692 18.6971 29.5568 18.6971C30.0638 18.6971 30.5187 18.5897 30.9216 18.3749C31.3314 18.1601 31.6682 17.8487 31.9322 17.4406C32.203 17.0253 32.3802 16.5278 32.4635 15.9478H36.6517C36.5822 17.2079 36.2488 18.3176 35.6515 19.277C35.0611 20.2292 34.245 20.9738 33.2032 21.5108C32.1614 22.0477 30.9285 22.3162 29.5047 22.3162Z" fill="#1A1A2C"/>
<path d="M4.83412 21.994H0L7.36578 0H13.1792L20.5346 21.994H15.7005L10.3558 5.02596H10.1892L4.83412 21.994ZM4.53198 13.3489H15.9505V16.9787H4.53198V13.3489Z" fill="#1A1A2C"/>
<ellipse cx="84.666" cy="3.66726" rx="3.66726" ry="3.66726" fill="#5E44FF"/>
</svg>
