<svg width="236" height="40" viewBox="0 0 236 40" fill="none" xmlns="http://www.w3.org/2000/svg">
<rect width="236" height="40" rx="20" fill="#563AFF" fill-opacity="0.1"/>
<path d="M20 27.12H36V11.12H20V27.12ZM42.4957 26H40.6321L44.8196 14.3636H46.848L51.0355 26H49.1719L45.8821 16.4773H45.7912L42.4957 26ZM42.8082 21.4432H48.8537V22.9205H42.8082V21.4432ZM56.1151 26.1761C55.2704 26.1761 54.5431 25.9848 53.9332 25.6023C53.3272 25.2159 52.8613 24.6837 52.5355 24.0057C52.2098 23.3277 52.0469 22.5511 52.0469 21.6761C52.0469 20.7898 52.2135 20.0076 52.5469 19.3295C52.8802 18.6477 53.3499 18.1155 53.956 17.733C54.562 17.3504 55.276 17.1591 56.098 17.1591C56.7609 17.1591 57.3518 17.2822 57.8707 17.5284C58.3897 17.7708 58.8082 18.1117 59.1264 18.5511C59.4484 18.9905 59.6397 19.5038 59.7003 20.0909H58.0469C57.956 19.6818 57.7476 19.3295 57.4219 19.0341C57.0999 18.7386 56.6681 18.5909 56.1264 18.5909C55.6529 18.5909 55.2382 18.7159 54.8821 18.9659C54.5298 19.2121 54.2552 19.5644 54.0582 20.0227C53.8613 20.4773 53.7628 21.0152 53.7628 21.6364C53.7628 22.2727 53.8594 22.822 54.0526 23.2841C54.2457 23.7462 54.5185 24.1042 54.8707 24.358C55.2268 24.6117 55.6454 24.7386 56.1264 24.7386C56.4484 24.7386 56.7401 24.6799 57.0014 24.5625C57.2666 24.4413 57.4882 24.2689 57.6662 24.0455C57.848 23.822 57.9749 23.553 58.0469 23.2386H59.7003C59.6397 23.803 59.456 24.3068 59.1491 24.75C58.8423 25.1932 58.4313 25.5417 57.9162 25.7955C57.4048 26.0492 56.8045 26.1761 56.1151 26.1761ZM61.517 26V17.2727H63.1477V18.6932H63.2557C63.4375 18.2121 63.7348 17.8371 64.1477 17.5682C64.5606 17.2955 65.0549 17.1591 65.6307 17.1591C66.214 17.1591 66.7027 17.2955 67.0966 17.5682C67.4943 17.8409 67.7879 18.2159 67.9773 18.6932H68.0682C68.2765 18.2273 68.608 17.8561 69.0625 17.5795C69.517 17.2992 70.0587 17.1591 70.6875 17.1591C71.4792 17.1591 72.125 17.4072 72.625 17.9034C73.1288 18.3996 73.3807 19.1477 73.3807 20.1477V26H71.6818V20.3068C71.6818 19.7159 71.5208 19.2879 71.1989 19.0227C70.8769 18.7576 70.4924 18.625 70.0455 18.625C69.4924 18.625 69.0625 18.7955 68.7557 19.1364C68.4489 19.4735 68.2955 19.9072 68.2955 20.4375V26H66.6023V20.1989C66.6023 19.7254 66.4545 19.3447 66.1591 19.0568C65.8636 18.7689 65.4792 18.625 65.0057 18.625C64.6837 18.625 64.3864 18.7102 64.1136 18.8807C63.8447 19.0473 63.6269 19.2803 63.4602 19.5795C63.2973 19.8788 63.2159 20.2254 63.2159 20.6193V26H61.517ZM79.419 26.1761C78.5592 26.1761 77.8187 25.9924 77.1974 25.625C76.58 25.2538 76.1027 24.733 75.7656 24.0625C75.4323 23.3883 75.2656 22.5985 75.2656 21.6932C75.2656 20.7992 75.4323 20.0114 75.7656 19.3295C76.1027 18.6477 76.5724 18.1155 77.1747 17.733C77.7808 17.3504 78.4891 17.1591 79.2997 17.1591C79.7921 17.1591 80.2694 17.2405 80.7315 17.4034C81.1937 17.5663 81.6084 17.822 81.9759 18.1705C82.3433 18.5189 82.633 18.9716 82.8452 19.5284C83.0573 20.0814 83.1634 20.7538 83.1634 21.5455V22.1477H76.2259V20.875H81.4986C81.4986 20.428 81.4077 20.0322 81.2259 19.6875C81.044 19.339 80.7884 19.0644 80.4588 18.8636C80.133 18.6629 79.7505 18.5625 79.3111 18.5625C78.8338 18.5625 78.4171 18.6799 78.0611 18.9148C77.7088 19.1458 77.4361 19.4489 77.2429 19.8239C77.0535 20.1951 76.9588 20.5985 76.9588 21.0341V22.0284C76.9588 22.6117 77.0611 23.108 77.2656 23.517C77.474 23.9261 77.7637 24.2386 78.1349 24.4545C78.5062 24.6667 78.9399 24.7727 79.4361 24.7727C79.758 24.7727 80.0516 24.7273 80.3168 24.6364C80.5819 24.5417 80.8111 24.4015 81.0043 24.2159C81.1974 24.0303 81.3452 23.8011 81.4474 23.5284L83.0554 23.8182C82.9266 24.2917 82.6955 24.7064 82.3622 25.0625C82.0327 25.4148 81.6179 25.6894 81.1179 25.8864C80.6217 26.0795 80.0554 26.1761 79.419 26.1761ZM89.419 26V14.3636H93.5668C94.4721 14.3636 95.2221 14.5284 95.8168 14.858C96.4115 15.1875 96.8565 15.6383 97.152 16.2102C97.4474 16.7784 97.5952 17.4186 97.5952 18.1307C97.5952 18.8466 97.4455 19.4905 97.1463 20.0625C96.8509 20.6307 96.4039 21.0814 95.8054 21.4148C95.2107 21.7443 94.4626 21.9091 93.5611 21.9091H90.7088V20.4205H93.402C93.974 20.4205 94.438 20.322 94.794 20.125C95.1501 19.9242 95.4115 19.6515 95.5781 19.3068C95.7448 18.9621 95.8281 18.5701 95.8281 18.1307C95.8281 17.6913 95.7448 17.3011 95.5781 16.9602C95.4115 16.6193 95.1482 16.3523 94.7884 16.1591C94.4323 15.9659 93.9626 15.8693 93.3793 15.8693H91.1747V26H89.419ZM99.517 26V17.2727H101.159V18.6591H101.25C101.409 18.1894 101.689 17.8201 102.091 17.5511C102.496 17.2784 102.955 17.142 103.466 17.142C103.572 17.142 103.697 17.1458 103.841 17.1534C103.989 17.161 104.104 17.1705 104.188 17.1818V18.8068C104.119 18.7879 103.998 18.767 103.824 18.7443C103.65 18.7178 103.475 18.7045 103.301 18.7045C102.9 18.7045 102.542 18.7898 102.227 18.9602C101.917 19.1269 101.67 19.3598 101.489 19.6591C101.307 19.9545 101.216 20.2917 101.216 20.6705V26H99.517ZM109.021 26.1761C108.203 26.1761 107.489 25.9886 106.879 25.6136C106.269 25.2386 105.796 24.714 105.459 24.0398C105.122 23.3655 104.953 22.5777 104.953 21.6761C104.953 20.7708 105.122 19.9792 105.459 19.3011C105.796 18.6231 106.269 18.0966 106.879 17.7216C107.489 17.3466 108.203 17.1591 109.021 17.1591C109.839 17.1591 110.554 17.3466 111.163 17.7216C111.773 18.0966 112.247 18.6231 112.584 19.3011C112.921 19.9792 113.089 20.7708 113.089 21.6761C113.089 22.5777 112.921 23.3655 112.584 24.0398C112.247 24.714 111.773 25.2386 111.163 25.6136C110.554 25.9886 109.839 26.1761 109.021 26.1761ZM109.027 24.75C109.557 24.75 109.997 24.6098 110.345 24.3295C110.694 24.0492 110.951 23.6761 111.118 23.2102C111.288 22.7443 111.374 22.2311 111.374 21.6705C111.374 21.1136 111.288 20.6023 111.118 20.1364C110.951 19.6667 110.694 19.2898 110.345 19.0057C109.997 18.7216 109.557 18.5795 109.027 18.5795C108.493 18.5795 108.05 18.7216 107.697 19.0057C107.349 19.2898 107.089 19.6667 106.919 20.1364C106.752 20.6023 106.669 21.1136 106.669 21.6705C106.669 22.2311 106.752 22.7443 106.919 23.2102C107.089 23.6761 107.349 24.0492 107.697 24.3295C108.05 24.6098 108.493 24.75 109.027 24.75ZM118.253 26.1705C117.548 26.1705 116.92 25.9905 116.366 25.6307C115.817 25.267 115.385 24.75 115.071 24.0795C114.76 23.4053 114.605 22.5966 114.605 21.6534C114.605 20.7102 114.762 19.9034 115.077 19.233C115.395 18.5625 115.83 18.0492 116.384 17.6932C116.937 17.3371 117.563 17.1591 118.264 17.1591C118.806 17.1591 119.241 17.25 119.571 17.4318C119.904 17.6098 120.162 17.8182 120.344 18.0568C120.529 18.2955 120.673 18.5057 120.776 18.6875H120.878V14.3636H122.577V26H120.918V24.642H120.776C120.673 24.8277 120.526 25.0398 120.332 25.2784C120.143 25.517 119.882 25.7254 119.548 25.9034C119.215 26.0814 118.783 26.1705 118.253 26.1705ZM118.628 24.7216C119.116 24.7216 119.529 24.5928 119.866 24.3352C120.207 24.0739 120.465 23.7121 120.639 23.25C120.817 22.7879 120.906 22.25 120.906 21.6364C120.906 21.0303 120.819 20.5 120.645 20.0455C120.471 19.5909 120.215 19.2367 119.878 18.983C119.541 18.7292 119.124 18.6023 118.628 18.6023C118.116 18.6023 117.69 18.7348 117.349 19C117.009 19.2652 116.751 19.6269 116.577 20.0852C116.406 20.5436 116.321 21.0606 116.321 21.6364C116.321 22.2197 116.408 22.7443 116.582 23.2102C116.757 23.6761 117.014 24.0455 117.355 24.3182C117.7 24.5871 118.124 24.7216 118.628 24.7216ZM130.53 22.3807V17.2727H132.234V26H130.564V24.4886H130.473C130.272 24.9545 129.95 25.3428 129.507 25.6534C129.068 25.9602 128.52 26.1136 127.865 26.1136C127.304 26.1136 126.808 25.9905 126.376 25.7443C125.948 25.4943 125.611 25.125 125.365 24.6364C125.123 24.1477 125.001 23.5436 125.001 22.8239V17.2727H126.7V22.6193C126.7 23.214 126.865 23.6875 127.195 24.0398C127.524 24.392 127.952 24.5682 128.479 24.5682C128.797 24.5682 129.113 24.4886 129.428 24.3295C129.746 24.1705 130.009 23.9299 130.217 23.608C130.429 23.286 130.534 22.8769 130.53 22.3807ZM138.193 26.1761C137.348 26.1761 136.621 25.9848 136.011 25.6023C135.405 25.2159 134.939 24.6837 134.614 24.0057C134.288 23.3277 134.125 22.5511 134.125 21.6761C134.125 20.7898 134.292 20.0076 134.625 19.3295C134.958 18.6477 135.428 18.1155 136.034 17.733C136.64 17.3504 137.354 17.1591 138.176 17.1591C138.839 17.1591 139.43 17.2822 139.949 17.5284C140.468 17.7708 140.886 18.1117 141.205 18.5511C141.527 18.9905 141.718 19.5038 141.778 20.0909H140.125C140.034 19.6818 139.826 19.3295 139.5 19.0341C139.178 18.7386 138.746 18.5909 138.205 18.5909C137.731 18.5909 137.316 18.7159 136.96 18.9659C136.608 19.2121 136.333 19.5644 136.136 20.0227C135.939 20.4773 135.841 21.0152 135.841 21.6364C135.841 22.2727 135.938 22.822 136.131 23.2841C136.324 23.7462 136.597 24.1042 136.949 24.358C137.305 24.6117 137.723 24.7386 138.205 24.7386C138.527 24.7386 138.818 24.6799 139.08 24.5625C139.345 24.4413 139.566 24.2689 139.744 24.0455C139.926 23.822 140.053 23.553 140.125 23.2386H141.778C141.718 23.803 141.534 24.3068 141.227 24.75C140.92 25.1932 140.509 25.5417 139.994 25.7955C139.483 26.0492 138.883 26.1761 138.193 26.1761ZM147.669 17.2727V18.6364H142.902V17.2727H147.669ZM144.18 15.1818H145.879V23.4375C145.879 23.767 145.929 24.0152 146.027 24.1818C146.125 24.3447 146.252 24.4564 146.408 24.517C146.567 24.5739 146.739 24.6023 146.925 24.6023C147.061 24.6023 147.18 24.5928 147.283 24.5739C147.385 24.5549 147.464 24.5398 147.521 24.5284L147.828 25.9318C147.73 25.9697 147.589 26.0076 147.408 26.0455C147.226 26.0871 146.999 26.1098 146.726 26.1136C146.279 26.1212 145.862 26.0417 145.476 25.875C145.089 25.7083 144.777 25.4508 144.538 25.1023C144.3 24.7538 144.18 24.3163 144.18 23.7898V15.1818ZM149.548 26V17.2727H151.247V26H149.548ZM150.406 15.9261C150.111 15.9261 149.857 15.8277 149.645 15.6307C149.437 15.4299 149.332 15.1913 149.332 14.9148C149.332 14.6345 149.437 14.3958 149.645 14.1989C149.857 13.9981 150.111 13.8977 150.406 13.8977C150.702 13.8977 150.954 13.9981 151.162 14.1989C151.374 14.3958 151.48 14.6345 151.48 14.9148C151.48 15.1913 151.374 15.4299 151.162 15.6307C150.954 15.8277 150.702 15.9261 150.406 15.9261ZM160.999 17.2727L157.834 26H156.016L152.845 17.2727H154.669L156.879 23.9886H156.97L159.175 17.2727H160.999ZM162.595 26V17.2727H164.294V26H162.595ZM163.453 15.9261C163.158 15.9261 162.904 15.8277 162.692 15.6307C162.483 15.4299 162.379 15.1913 162.379 14.9148C162.379 14.6345 162.483 14.3958 162.692 14.1989C162.904 13.9981 163.158 13.8977 163.453 13.8977C163.749 13.8977 164 13.9981 164.209 14.1989C164.421 14.3958 164.527 14.6345 164.527 14.9148C164.527 15.1913 164.421 15.4299 164.209 15.6307C164 15.8277 163.749 15.9261 163.453 15.9261ZM170.653 17.2727V18.6364H165.886V17.2727H170.653ZM167.165 15.1818H168.864V23.4375C168.864 23.767 168.913 24.0152 169.011 24.1818C169.11 24.3447 169.237 24.4564 169.392 24.517C169.551 24.5739 169.723 24.6023 169.909 24.6023C170.045 24.6023 170.165 24.5928 170.267 24.5739C170.369 24.5549 170.449 24.5398 170.506 24.5284L170.812 25.9318C170.714 25.9697 170.574 26.0076 170.392 26.0455C170.21 26.0871 169.983 26.1098 169.71 26.1136C169.263 26.1212 168.847 26.0417 168.46 25.875C168.074 25.7083 167.761 25.4508 167.523 25.1023C167.284 24.7538 167.165 24.3163 167.165 23.7898V15.1818ZM173.607 29.2727C173.353 29.2727 173.122 29.2519 172.913 29.2102C172.705 29.1723 172.55 29.1307 172.447 29.0852L172.857 27.6932C173.167 27.7765 173.444 27.8125 173.686 27.8011C173.929 27.7898 174.143 27.6989 174.328 27.5284C174.518 27.358 174.684 27.0795 174.828 26.6932L175.038 26.1136L171.845 17.2727H173.663L175.874 24.0455H175.964L178.175 17.2727H179.999L176.402 27.1648C176.235 27.6193 176.023 28.0038 175.766 28.3182C175.508 28.6364 175.201 28.875 174.845 29.0341C174.489 29.1932 174.076 29.2727 173.607 29.2727ZM186.949 26H185.085L189.273 14.3636H191.301L195.489 26H193.625L190.335 16.4773H190.244L186.949 26ZM187.261 21.4432H193.307V22.9205H187.261V21.4432ZM197.033 29.2727V17.2727H198.692V18.6875H198.834C198.932 18.5057 199.074 18.2955 199.26 18.0568C199.446 17.8182 199.703 17.6098 200.033 17.4318C200.362 17.25 200.798 17.1591 201.339 17.1591C202.044 17.1591 202.673 17.3371 203.226 17.6932C203.779 18.0492 204.213 18.5625 204.527 19.233C204.845 19.9034 205.004 20.7102 205.004 21.6534C205.004 22.5966 204.847 23.4053 204.533 24.0795C204.218 24.75 203.786 25.267 203.237 25.6307C202.688 25.9905 202.061 26.1705 201.357 26.1705C200.826 26.1705 200.393 26.0814 200.055 25.9034C199.722 25.7254 199.461 25.517 199.271 25.2784C199.082 25.0398 198.936 24.8277 198.834 24.642H198.732V29.2727H197.033ZM198.697 21.6364C198.697 22.25 198.786 22.7879 198.964 23.25C199.143 23.7121 199.4 24.0739 199.737 24.3352C200.074 24.5928 200.487 24.7216 200.976 24.7216C201.483 24.7216 201.908 24.5871 202.249 24.3182C202.589 24.0455 202.847 23.6761 203.021 23.2102C203.199 22.7443 203.288 22.2197 203.288 21.6364C203.288 21.0606 203.201 20.5436 203.027 20.0852C202.857 19.6269 202.599 19.2652 202.254 19C201.913 18.7348 201.487 18.6023 200.976 18.6023C200.483 18.6023 200.067 18.7292 199.726 18.983C199.389 19.2367 199.133 19.5909 198.959 20.0455C198.785 20.5 198.697 21.0303 198.697 21.6364ZM206.908 29.2727V17.2727H208.567V18.6875H208.709C208.807 18.5057 208.949 18.2955 209.135 18.0568C209.321 17.8182 209.578 17.6098 209.908 17.4318C210.237 17.25 210.673 17.1591 211.214 17.1591C211.919 17.1591 212.548 17.3371 213.101 17.6932C213.654 18.0492 214.088 18.5625 214.402 19.233C214.72 19.9034 214.879 20.7102 214.879 21.6534C214.879 22.5966 214.722 23.4053 214.408 24.0795C214.093 24.75 213.661 25.267 213.112 25.6307C212.563 25.9905 211.936 26.1705 211.232 26.1705C210.701 26.1705 210.268 26.0814 209.93 25.9034C209.597 25.7254 209.336 25.517 209.146 25.2784C208.957 25.0398 208.811 24.8277 208.709 24.642H208.607V29.2727H206.908ZM208.572 21.6364C208.572 22.25 208.661 22.7879 208.839 23.25C209.018 23.7121 209.275 24.0739 209.612 24.3352C209.949 24.5928 210.362 24.7216 210.851 24.7216C211.358 24.7216 211.783 24.5871 212.124 24.3182C212.464 24.0455 212.722 23.6761 212.896 23.2102C213.074 22.7443 213.163 22.2197 213.163 21.6364C213.163 21.0606 213.076 20.5436 212.902 20.0852C212.732 19.6269 212.474 19.2652 212.129 19C211.788 18.7348 211.362 18.6023 210.851 18.6023C210.358 18.6023 209.942 18.7292 209.601 18.983C209.264 19.2367 209.008 19.5909 208.834 20.0455C208.66 20.5 208.572 21.0303 208.572 21.6364Z" fill="#5E44FF"/>
</svg>
